{"title":"Complete Unknown 2016 Movies DVDRip XviD AAC New +Sample ~ ☻rDX☻","uid":15897576,"size":740095527,"categoryP":"video","categoryS":"movies","magnet":"?xt=urn:btih:470d0d0fc36230fc1385671f82b1c6a38540fdc2&amp;dn=Complete+Unknown+2016+Movies+DVDRip+XviD+AAC+New+%2BSample+%7E+%E2%98%BBrDX%E2%98%BB&amp;tr=udp%3A%2F%2Ftracker.leechers-paradise.org%3A6969&amp;tr=udp%3A%2F%2Fzer0day.ch%3A1337&amp;tr=udp%3A%2F%2Fopen.demonii.com%3A1337&amp;tr=udp%3A%2F%2Ftracker.coppersurfer.tk%3A6969&amp;tr=udp%3A%2F%2Fexodus.desync.com%3A6969","seeders":0,"leechers":17,"uploader":"basicssom","files":2,"time":1474975030,"description":"----------------------------------------------------------------\r\nComplete Unknown 2016 English Movies DVDRip XviD AAC New Source with Sample ☻rDX☻\r\n\r\nSCREEN SHOTS &amp; POSTER:\r\n  \nhttp://postimage.co.nr/2016/10/sell/index.htm  \nhttp://postimage.co.nr/2016/10/sell/1.html  \nhttp://postimage.co.nr/2016/10/sell/2.html  \nhttp://postimage.co.nr/2016/10/sell/3.html  \nhttp://postimage.co.nr/2016/10/sell/4.html  \nhttp://postimage.co.nr/2016/10/sell/5.html  \nhttp://postimage.co.nr/2016/10/sell/6.html  \nhttp://postimage.co.nr/2016/10/sell/7.html  \nhttp://postimage.co.nr/2016/10/sell/8.html  \nhttp://postimage.co.nr/2016/10/sell/9.html  \nhttp://postimage.co.nr/2016/10/sell/10.html\r\n\r\nFormat                                   : Matroska\r\nFormat version                           : Version 4 / Version 2\r\nFile size                                : 698 MiB\r\nDuration                                 : 1 h 31 min\r\nOverall bit rate mode                    : Constant\r\nOverall bit rate                         : 1 062 kb/s\r\nMovie name                               : Complete Unknown 2016 English Movies DVDRip XviD AAC New Source ?rDX?\r\n\r\nVideo\r\nID                                       : 2\r\nFormat                                   : AVC\r\nFormat/Info                              : Advanced Video Codec\r\nFormat profile                           :   \r\nFormat settings, CABAC                   : Yes\r\nFormat settings, ReFrames                : 2 frames\r\nFormat settings, GOP                     : M=1, N=12\r\nCodec ID                                 : V_MPEG4/ISO/AVC\r\nDuration                                 : 1 h 31 min\r\nBit rate mode                            : Constant\r\nBit rate                                 : 615 kb/s\r\nWidth                                    : 720 pixels\r\nHeight                                   : 320 pixels\r\nDisplay aspect ratio                     : 2.25:1\r\nFrame rate mode                          : Constant\r\nFrame rate                               : 23.976 (24000/1001) FPS\r\nColor space                              : YUV\r\nChroma subsampling                       : 4:2:0\r\nBit depth                                : 8 bits\r\nScan type                                : Progressive\r\nBits/(Pixel*Frame)                       : 0.111\r\nStream size                              : 390 MiB (56%)\r\nTitle                                    : ?rDX?\r\nDefault                                  : Yes\r\nForced                                   : No\r\n\r\nAudio\r\nID                                       : 1\r\nFormat                                   : AC-3\r\nFormat/Info                              : Audio Coding 3\r\nMode extension                           : CM (complete main)\r\nFormat settings, Endianness              : Big\r\nCodec ID                                 : A_AC3\r\nDuration                                 : 1 h 31 min\r\nBit rate mode                            : Constant\r\nBit rate                                 : 448 kb/s\r\nChannel(s)                               : 6 channels\r\nChannel positions                        : Front: L C R, Side: L R, LFE\r\nSampling rate                            : 48.0 kHz\r\nFrame rate                               : 31.250 FPS (1536 spf)\r\nCompression mode                         : Lossy\r\nStream size                              : 294 MiB (42%)\r\nTitle                                    : ?rDX?\r\nDefault                                  : Yes\r\nForced                                   : No\r\n\r\nIMDB \nhttp://www.imdb.com/title/tt4230700/","torrent":{"xt":"urn:btih:470d0d0fc36230fc1385671f82b1c6a38540fdc2","amp;dn":"Complete+Unknown+2016+Movies+DVDRip+XviD+AAC+New+%2BSample+%7E+%E2%98%BBrDX%E2%98%BB","amp;tr":["udp%3A%2F%2Ftracker.leechers-paradise.org%3A6969","udp%3A%2F%2Fzer0day.ch%3A1337","udp%3A%2F%2Fopen.demonii.com%3A1337","udp%3A%2F%2Ftracker.coppersurfer.tk%3A6969","udp%3A%2F%2Fexodus.desync.com%3A6969"],"infoHash":"470d0d0fc36230fc1385671f82b1c6a38540fdc2","infoHashBuffer":{"type":"Buffer","data":[71,13,13,15,195,98,48,252,19,133,103,31,130,177,198,163,133,64,253,194]},"announce":[],"urlList":[]}}